<svg width="140" height="90" viewBox="0 0 140 90" fill="none" xmlns="http://www.w3.org/2000/svg">
<!-- Shopping/Store Icon -->
<path d="M27.1445 0.507812C27.3854 0.480869 27.6587 0.520571 28.0361 0.65332C28.0373 0.654357 28.0388 0.65516 28.04 0.65625C28.0854 0.695581 28.1528 0.755235 28.2422 0.837891C28.4202 1.00238 28.6763 1.24504 29.0068 1.56152C29.6673 2.19386 30.6174 3.11517 31.8164 4.28516C34.2146 6.6252 37.6049 9.95666 41.6562 13.9502C49.7588 21.9371 60.5046 32.5726 71.2441 43.2285C81.9836 53.8844 92.7168 64.5601 100.795 72.6279C104.834 76.662 108.209 80.0436 110.589 82.4443C111.779 83.6449 112.719 84.5998 113.369 85.2676C113.694 85.6016 113.946 85.8625 114.118 86.0459C114.205 86.1377 114.269 86.2078 114.312 86.2568C114.325 86.2708 114.335 86.2821 114.343 86.291C115.307 88.1502 113.217 90.172 111.443 89.2754L111.271 89.1787C111.278 89.1827 111.255 89.1679 111.185 89.1084C111.122 89.0558 111.04 88.9822 110.936 88.8877C110.727 88.6989 110.441 88.4332 110.084 88.0947C109.37 87.4183 108.373 86.4579 107.135 85.2529C104.659 82.8432 101.22 79.4604 97.1436 75.4297C88.9906 67.3684 78.2882 56.7162 67.6348 46.0703C56.9813 35.4243 46.3775 24.7849 38.4219 16.749C34.4439 12.7309 31.1287 9.36424 28.8008 6.97363C27.6368 5.7783 26.7207 4.82892 26.0928 4.16406C25.7784 3.83116 25.5388 3.57191 25.377 3.39062C25.2983 3.30254 25.2419 3.2366 25.2051 3.19141C25.0079 2.31931 25.3554 1.48019 26.2637 0.878906C26.621 0.642318 26.8908 0.536273 27.1445 0.507812ZM30.8799 20.1836C31.0637 20.2185 31.2553 20.31 31.5391 20.5332C31.8314 20.7631 32.1753 21.0945 32.6807 21.5742C33.3241 22.1855 33.7906 22.6518 34.0977 23.0137C34.251 23.1943 34.3538 23.3363 34.417 23.4463C34.4425 23.4907 34.4575 23.5255 34.4678 23.5508C34.4466 23.5618 34.4186 23.5778 34.3789 23.5928C34.1464 23.6806 33.7521 23.7515 33.1426 23.8203C19.5082 25.3529 10.8655 41.2152 16.7354 53.8418C25.5148 72.7293 53.4561 69.4872 57.5127 49.0898C57.6753 48.2729 57.7985 47.7011 57.9277 47.3232C57.9889 47.1445 58.0414 47.0417 58.0801 46.9863C58.0915 46.9907 58.1062 46.9948 58.123 47.0029C58.2135 47.0467 58.3413 47.1317 58.5186 47.2783C58.8736 47.572 59.3394 48.0386 59.9805 48.6963L61.3799 50.1318L61.2881 50.9072C61.0848 52.6101 60.2739 54.7652 59.0576 56.9502C57.845 59.1285 56.2502 61.2995 54.5156 63.0352C44.5636 72.9932 28.3015 73.0139 18.2998 63.0791C4.73157 49.6031 10.1838 26.7076 28.375 20.7744C29.1144 20.5334 29.6327 20.3613 30.042 20.2607C30.4477 20.1611 30.6894 20.1475 30.8799 20.1836ZM101.47 19.5791C107.022 18.7642 112.952 20.3765 117.942 23.6064C122.932 26.836 126.944 31.6575 128.686 37.2041C133.199 51.5765 123.769 67.6446 109.526 69.9941L108.866 70.1025L107.138 68.4209C106.621 67.9187 106.226 67.5105 105.941 67.1807C105.684 66.8831 105.542 66.6741 105.473 66.5361C105.522 66.5256 105.59 66.5144 105.684 66.5059C127.213 64.5347 133.246 36.7314 114.429 26.1367C101.81 19.0324 84.8458 27.4959 82.9258 41.6338L82.8457 42.3115C82.772 43.0475 82.6826 43.5182 82.5811 43.7939C82.5746 43.8114 82.5655 43.8262 82.5596 43.8408C82.4998 43.791 82.4277 43.7345 82.3486 43.665C82.0516 43.4041 81.6444 43.0264 81.1621 42.5674C80.1986 41.6503 78.9496 40.4203 77.7119 39.1768C76.4743 37.9333 75.2506 36.679 74.3379 35.7109C73.8809 35.2262 73.5049 34.8171 73.2451 34.5186C73.239 34.5115 73.2335 34.504 73.2275 34.4971C73.4332 34.5018 73.6982 34.5269 74.0186 34.5791C74.8605 34.7163 75.9856 35.0162 77.2061 35.4531L77.7344 35.6494C78.1213 35.797 78.4708 35.9331 78.7676 35.9932C79.093 36.059 79.4249 36.0487 79.7471 35.8486C80.0317 35.6718 80.2522 35.3778 80.4629 35.0391C80.6794 34.691 80.9299 34.219 81.249 33.6201L81.25 33.6191C85.5188 25.6005 92.2319 20.9343 101.47 19.5791ZM32.6377 28.9756C33.1869 28.9739 33.4223 29.1119 33.5127 29.2266L33.543 29.2744C33.673 29.5347 33.646 29.6999 33.5586 29.8369C33.4467 30.0123 33.1778 30.2279 32.6465 30.4199C30.7703 31.0977 29.4665 31.6473 28.3838 32.2969C27.4287 32.8699 26.6603 33.5124 25.8242 34.3633L25.4609 34.7412C24.4647 35.7999 23.4783 37.2826 22.7412 38.7061C22.3717 39.4197 22.0596 40.1283 21.8389 40.7715C21.6212 41.4058 21.4805 42.0114 21.4805 42.5078C21.4805 42.5918 21.3979 42.7999 21.1709 43.0215C20.9461 43.2408 20.7271 43.3288 20.627 43.3291C20.3911 43.3291 20.2671 43.2593 20.1895 43.1729C20.0994 43.0725 20.0106 42.8801 19.9844 42.5342C19.9312 41.8325 20.1552 40.7261 20.7314 39.2412C22.476 34.7441 25.9187 31.2442 30.2725 29.5283C31.2259 29.1525 32.0411 28.9775 32.6377 28.9756ZM100.345 28.9375C100.983 28.788 101.404 28.8315 101.641 28.9268C101.858 29.0141 101.91 29.1329 101.918 29.2305C101.928 29.357 101.87 29.5848 101.607 29.8564C101.35 30.1226 100.922 30.3993 100.292 30.5986C95.1019 32.2409 91.3015 36.3312 89.873 41.7812C89.6605 42.5922 89.3784 43.0633 89.1387 43.293C88.9128 43.5093 88.7857 43.4719 88.7305 43.4443C88.627 43.3925 88.4416 43.2019 88.3418 42.7324C88.2456 42.2797 88.2482 41.6358 88.4443 40.8252C89.0977 38.1266 90.7196 35.4662 92.8701 33.3184C95.0209 31.1704 97.6706 29.5642 100.345 28.9375ZM6.75684 33.8564C7.58532 33.8765 8.3793 33.9143 8.98047 33.9648C9.2823 33.9902 9.52652 34.018 9.69922 34.0469C9.73699 34.0532 9.76883 34.0618 9.7959 34.0674C9.79158 34.101 9.78779 34.1475 9.77539 34.209C9.68926 34.6362 9.43867 35.4668 8.90332 37.2559V37.2568C8.70292 37.9274 8.57528 38.3757 8.4375 38.7031C8.30568 39.0163 8.19389 39.1423 8.07129 39.2178C7.93055 39.3043 7.70028 39.3705 7.23145 39.4023C6.76649 39.4339 6.14924 39.4287 5.27148 39.4287C3.93349 39.4287 3.22662 39.4173 2.76562 39.3574C2.35091 39.3035 2.1608 39.2152 1.85449 39.0254H1.85352C-0.327805 37.6771 0.234092 34.5 2.78418 33.9678C3.04864 33.9124 3.60995 33.8717 4.34961 33.8525C5.07383 33.8338 5.92924 33.8364 6.75684 33.8564ZM131.571 33.7949C132.318 33.7389 133.259 33.7375 134.215 33.7832C135.17 33.8289 136.128 33.9214 136.908 34.0508C137.298 34.1155 137.636 34.1879 137.903 34.2656C138.184 34.3472 138.341 34.4222 138.405 34.4697C139.998 35.64 139.813 38.2091 138.108 39.1025C138.064 39.1259 137.953 39.1659 137.755 39.2109C137.567 39.2538 137.33 39.295 137.057 39.332C136.511 39.4061 135.844 39.4622 135.17 39.4941C134.496 39.5261 133.823 39.5336 133.268 39.5117C132.99 39.5008 132.746 39.4827 132.55 39.458C132.345 39.4322 132.221 39.4026 132.165 39.3809L132.164 39.3799C131.984 39.3102 131.94 39.2903 131.903 39.2617C131.879 39.2423 131.826 39.1928 131.736 39.0098C131.543 38.6149 131.291 37.8495 130.745 36.1895L130.088 34.1924L130.281 34.0322C130.276 34.0368 130.296 34.0199 130.366 33.9932C130.433 33.9679 130.525 33.9418 130.644 33.916C130.882 33.8644 131.197 33.823 131.571 33.7949Z" fill="#6B7280" stroke="#6B7280" stroke-width="0.5"/>
</svg>
