<svg width="160" height="60" viewBox="0 0 160 60" fill="none" xmlns="http://www.w3.org/2000/svg">
<!-- Smart Glasses Icon -->
<path d="M38.6406 0.688477C50.1922 -0.724973 62.3124 5.91406 67.8223 16.709C68.1589 17.3685 68.4254 17.8889 68.6611 18.2754C68.8922 18.6543 69.1323 18.9717 69.4395 19.166C69.7787 19.3805 70.1327 19.4058 70.4941 19.3457C70.8292 19.29 71.2207 19.1522 71.6631 18.9951C77.4135 16.9508 83.4483 17.0178 88.9648 19.1787V19.1797C89.4016 19.351 89.7893 19.5021 90.1221 19.5674C90.4817 19.6379 90.8394 19.6216 91.1826 19.4062C91.4909 19.2126 91.7302 18.8912 91.959 18.5107C92.193 18.1216 92.4578 17.5968 92.792 16.9316C101.019 0.553785 122.058 -4.52894 136.588 6.33301C154.215 19.5093 151.883 46.5523 132.287 56.3428C113.072 65.9429 90.5941 52.5369 89.9092 31.0664C89.8734 29.9464 89.8453 29.0888 89.7939 28.4258C89.743 27.7677 89.666 27.2554 89.5127 26.8438C89.1782 25.946 88.5072 25.6252 87.5977 25.1631C83.4754 23.0702 77.3793 23.014 72.8613 25C72.4881 25.1639 72.1311 25.3234 71.8467 25.5557C71.5362 25.8092 71.3333 26.1283 71.1992 26.5664C71.0716 26.9835 71.0029 27.5211 70.9551 28.2275C70.9068 28.9397 70.8773 29.863 70.8418 31.0674C70.0243 58.7818 34.5797 69.8284 17.9814 47.5225C4.48028 29.379 15.8801 3.47376 38.6406 0.688477ZM45.4844 5.72168C34.7718 3.98219 24.1245 9.62732 19.4912 19.5C13.6647 31.9167 18.8661 46.4082 31.2549 52.2627C46.5772 59.5026 64.5386 49.1776 66.0586 32.2627C67.2121 19.4065 58.2073 7.78718 45.4844 5.72168ZM123.099 5.72363C104.081 2.37251 88.8579 22.3115 96.7637 40.1367C103.656 55.6751 124.411 59.4904 136.448 47.4385C150.569 33.3005 142.847 9.20366 123.099 5.72363ZM115.687 11.4609C116.02 11.4892 116.202 11.5809 116.299 11.6748C116.387 11.7604 116.462 11.9031 116.462 12.1709C116.462 12.3327 116.436 12.4464 116.394 12.5371C116.351 12.627 116.278 12.7244 116.141 12.834C115.845 13.0692 115.316 13.3128 114.381 13.624C108.86 15.463 104.041 20.6586 102.895 26.0557C102.628 27.3093 101.93 27.9982 101.447 28.1484C101.227 28.217 101.09 28.1699 100.999 28.082C100.887 27.9735 100.743 27.7043 100.743 27.1377C100.743 24.5089 102.089 21.4111 104.257 18.6318C106.419 15.8599 109.349 13.4713 112.417 12.2354C113.911 11.633 115.003 11.4031 115.687 11.4609ZM37.3555 11.4561C37.9887 11.4604 38.3059 11.6438 38.4326 11.8369C38.6644 12.1914 38.6358 12.3965 38.5469 12.5469C38.4231 12.7556 38.0918 13.0176 37.4004 13.2627C30.8196 15.5963 26.4769 19.8888 25.0098 25.6191L24.876 26.1787C24.5929 27.4622 23.9019 28.0685 23.4609 28.1641C23.2668 28.2061 23.12 28.1584 23.0039 28.0283C22.8693 27.8774 22.7266 27.556 22.7266 26.9648C22.7266 24.3389 24.0948 21.29 26.3506 18.5273C28.5993 15.7734 31.6837 13.3625 35.0146 11.999C35.9307 11.6236 36.7393 11.4519 37.3555 11.4561ZM7.11328 17.2705C8.44408 17.2702 9.41643 17.267 10.125 17.2988C10.4782 17.3147 10.7516 17.3396 10.9619 17.374C11.1759 17.409 11.2954 17.4497 11.3584 17.4834C11.3798 17.4949 11.3905 17.5042 11.3955 17.5088C11.3985 17.5201 11.4078 17.5631 11.3936 17.6641C11.3561 17.9293 11.2157 18.3086 10.9893 18.9355H10.9883C10.6549 19.8612 10.2042 21.2492 9.98633 22.0303C9.70804 23.0253 9.52838 23.3411 9.2002 23.5156C9.01503 23.6141 8.74092 23.6885 8.29004 23.7324C7.84096 23.7761 7.25971 23.7847 6.4834 23.7832C4.87427 23.7795 3.87097 23.7188 3.15234 23.5498C2.55227 23.4087 2.15089 23.1927 1.75879 22.8486L1.59082 22.6934C0.733368 21.8614 0.411346 20.9091 0.520508 20.0391C0.630029 19.1668 1.18292 18.2965 2.2334 17.6553H2.23438C2.48065 17.5047 2.71727 17.4059 3.38281 17.3467C4.07424 17.2852 5.16963 17.2705 7.11328 17.2705ZM150.591 17.0635C151.446 17.0436 152.501 17.0658 153.556 17.1201C154.61 17.1745 155.655 17.2612 156.488 17.3682C156.905 17.4217 157.262 17.4792 157.538 17.5391C157.676 17.569 157.787 17.5986 157.872 17.626C157.914 17.6396 157.948 17.6518 157.973 17.6621C157.984 17.6671 157.994 17.6716 158 17.6748L158.009 17.6797C159.51 18.6097 159.971 20.8732 158.96 22.2939C158.549 22.8717 158.196 23.1758 157.578 23.375C156.908 23.591 155.916 23.6867 154.198 23.7441C153.243 23.7759 152.533 23.7924 151.989 23.7666C151.44 23.7406 151.114 23.6729 150.899 23.5723C150.531 23.3996 150.363 23.077 150.051 21.9326C149.876 21.2914 149.607 20.4105 149.372 19.7061L149.154 19.0762L148.959 18.5107C148.799 18.0119 148.738 17.7018 148.744 17.502C148.748 17.3894 148.773 17.35 148.784 17.335C148.799 17.3147 148.839 17.2731 148.957 17.2227C149.018 17.1966 149.189 17.1577 149.499 17.125C149.792 17.0942 150.163 17.0734 150.591 17.0635Z" fill="#6B7280" stroke="#6B7280" stroke-width="0.5"/>
</svg>
